<?xml version="1.0" encoding="utf-8"?>
<!-- Generator: Adobe Illustrator 24.0.2, SVG Export Plug-In . SVG Version: 6.00 Build 0)  -->
<svg version="1.1" xmlns="http://www.w3.org/2000/svg" xmlns:xlink="http://www.w3.org/1999/xlink" x="0px" y="0px"
	 viewBox="0 0 16 16" style="enable-background:new 0 0 16 16;" xml:space="preserve">
<style type="text/css">
	.st0{opacity:0;clip-path:url(#SVGID_4_);}
	.st1{opacity:0.65;clip-path:url(#SVGID_6_);}
	.st2{opacity:0;clip-path:url(#SVGID_10_);}
	.st3{opacity:0.65;clip-path:url(#SVGID_12_);}
	.st4{opacity:0;clip-path:url(#SVGID_16_);}
	.st5{opacity:0.65;clip-path:url(#SVGID_18_);}
	.st6{opacity:0.65;clip-path:url(#SVGID_20_);}
	.st7{fill-opacity:0;}
	.st8{fill-rule:evenodd;clip-rule:evenodd;fill:#FFFFFF;fill-opacity:0;}
	.st9{fill-rule:evenodd;clip-rule:evenodd;}
	.st10{fill-rule:evenodd;clip-rule:evenodd;fill-opacity:0;}
	.st11{fill:#2C2C2C;}
	.st12{opacity:0;clip-path:url(#SVGID_22_);}
	.st13{clip-path:url(#SVGID_24_);enable-background:new    ;}
	.st14{clip-path:url(#SVGID_26_);}
	.st15{clip-path:url(#SVGID_28_);}
	.st16{clip-path:url(#SVGID_30_);}
	.st17{clip-path:url(#SVGID_32_);}
	.st18{opacity:0;clip-path:url(#SVGID_34_);}
	.st19{clip-path:url(#SVGID_36_);}
</style>
<g id="图层_1">
</g>
<g id="图层_2">
	<g id="icon_x2F_lock">
		<g id="lock">
			<rect id="矩形_5_" class="st7" width="16" height="16"/>
			<path id="形状_40_" d="M13,7.2h-1.1V3.8c0-1.1-0.9-2-2-2H6.1c-1.1,0-2,0.9-2,2v3.5H3c-0.3,0-0.5,0.2-0.5,0.5v6
				c0,0.3,0.2,0.5,0.5,0.5h10c0.3,0,0.5-0.2,0.5-0.5v-6C13.5,7.5,13.3,7.2,13,7.2z M5.2,3.8c0-0.5,0.4-0.9,0.9-0.9h3.9
				c0.5,0,0.9,0.4,0.9,0.9v3.5H5.2V3.8z M12.4,13.1H3.6V8.4h8.8V13.1z M7.6,11v0.8c0,0.1,0.1,0.1,0.1,0.1h0.6c0.1,0,0.1-0.1,0.1-0.1
				V11c0.2-0.1,0.3-0.4,0.3-0.6c0-0.4-0.3-0.8-0.8-0.8s-0.8,0.3-0.8,0.8C7.2,10.6,7.4,10.8,7.6,11z"/>
		</g>
	</g>
</g>
</svg>
